<svg width="400" height="250" viewBox="0 0 400 250" fill="none" xmlns="http://www.w3.org/2000/svg">
<rect width="400" height="250" fill="#10B981"/>
<rect x="20" y="40" width="100" height="170" rx="8" fill="white"/>
<rect x="140" y="40" width="120" height="170" rx="8" fill="white"/>
<rect x="280" y="40" width="100" height="170" rx="8" fill="white"/>
<rect x="30" y="50" width="80" height="6" rx="3" fill="#E5E7EB"/>
<rect x="30" y="65" width="60" height="4" rx="2" fill="#F3F4F6"/>
<rect x="150" y="50" width="100" height="6" rx="3" fill="#E5E7EB"/>
<rect x="150" y="65" width="80" height="4" rx="2" fill="#F3F4F6"/>
<rect x="290" y="50" width="80" height="6" rx="3" fill="#E5E7EB"/>
<rect x="290" y="65" width="70" height="4" rx="2" fill="#F3F4F6"/>
<circle cx="70" cy="100" r="15" fill="#F59E0B"/>
<circle cx="200" cy="100" r="15" fill="#EF4444"/>
<circle cx="330" cy="100" r="15" fill="#8B5CF6"/>
<text x="200" y="230" text-anchor="middle" fill="white" font-family="system-ui" font-size="14" font-weight="600">Task Management App</text>
</svg>
